<mxfile host="app.diagrams.net" modified="2022-04-19T12:43:43.927Z" agent="5.0 (Macintosh; Intel Mac OS X 10_15_7) AppleWebKit/605.1.15 (KHTML, like Gecko) Version/15.4 Safari/605.1.15" etag="bKyKf2WVpzj_MA3ZZ7h4" version="17.4.1" type="github">
  <diagram id="CxiQNyd4D_oZEZSRKfxK" name="Page-1">
    <mxGraphModel dx="1094" dy="662" grid="1" gridSize="10" guides="1" tooltips="1" connect="1" arrows="1" fold="1" page="1" pageScale="1" pageWidth="827" pageHeight="1169" math="0" shadow="0">
      <root>
        <mxCell id="0" />
        <mxCell id="1" parent="0" />
        <mxCell id="j8oqrVwgT9RY4hqiSinP-14" style="edgeStyle=orthogonalEdgeStyle;rounded=0;orthogonalLoop=1;jettySize=auto;html=1;entryX=0.5;entryY=0;entryDx=0;entryDy=0;dashed=1;startArrow=none;startFill=0;endArrow=classic;endFill=1;" edge="1" parent="1" source="j8oqrVwgT9RY4hqiSinP-6" target="j8oqrVwgT9RY4hqiSinP-12">
          <mxGeometry relative="1" as="geometry">
            <Array as="points">
              <mxPoint x="205" y="250" />
              <mxPoint x="620" y="250" />
            </Array>
          </mxGeometry>
        </mxCell>
        <mxCell id="j8oqrVwgT9RY4hqiSinP-15" value="&lt;font style=&quot;font-size: 15px&quot;&gt;change mutation rate&lt;/font&gt;" style="edgeLabel;html=1;align=center;verticalAlign=middle;resizable=0;points=[];" vertex="1" connectable="0" parent="j8oqrVwgT9RY4hqiSinP-14">
          <mxGeometry x="-0.3541" y="2" relative="1" as="geometry">
            <mxPoint x="102" as="offset" />
          </mxGeometry>
        </mxCell>
        <mxCell id="j8oqrVwgT9RY4hqiSinP-6" value="Mutator (controlling mutation scale)" style="swimlane;" vertex="1" parent="1">
          <mxGeometry x="80" y="350" width="250" height="300" as="geometry" />
        </mxCell>
        <mxCell id="j8oqrVwgT9RY4hqiSinP-7" value="layer 1" style="rounded=1;whiteSpace=wrap;html=1;" vertex="1" parent="j8oqrVwgT9RY4hqiSinP-6">
          <mxGeometry x="65" y="40" width="120" height="60" as="geometry" />
        </mxCell>
        <mxCell id="j8oqrVwgT9RY4hqiSinP-8" value="layer 2" style="rounded=1;whiteSpace=wrap;html=1;" vertex="1" parent="j8oqrVwgT9RY4hqiSinP-6">
          <mxGeometry x="65" y="130" width="120" height="60" as="geometry" />
        </mxCell>
        <mxCell id="j8oqrVwgT9RY4hqiSinP-9" value="" style="edgeStyle=orthogonalEdgeStyle;rounded=0;orthogonalLoop=1;jettySize=auto;html=1;" edge="1" parent="j8oqrVwgT9RY4hqiSinP-6" source="j8oqrVwgT9RY4hqiSinP-7" target="j8oqrVwgT9RY4hqiSinP-8">
          <mxGeometry relative="1" as="geometry" />
        </mxCell>
        <mxCell id="j8oqrVwgT9RY4hqiSinP-10" value="layer n" style="rounded=1;whiteSpace=wrap;html=1;" vertex="1" parent="j8oqrVwgT9RY4hqiSinP-6">
          <mxGeometry x="65" y="220" width="120" height="60" as="geometry" />
        </mxCell>
        <mxCell id="j8oqrVwgT9RY4hqiSinP-11" value="" style="edgeStyle=orthogonalEdgeStyle;rounded=0;orthogonalLoop=1;jettySize=auto;html=1;startArrow=none;startFill=0;endArrow=none;endFill=0;dashed=1;" edge="1" parent="j8oqrVwgT9RY4hqiSinP-6" source="j8oqrVwgT9RY4hqiSinP-8" target="j8oqrVwgT9RY4hqiSinP-10">
          <mxGeometry relative="1" as="geometry" />
        </mxCell>
        <mxCell id="j8oqrVwgT9RY4hqiSinP-13" value="&lt;font style=&quot;font-size: 15px&quot;&gt;compute fitness&amp;nbsp;values&lt;/font&gt;" style="edgeStyle=orthogonalEdgeStyle;rounded=0;orthogonalLoop=1;jettySize=auto;html=1;entryX=0.5;entryY=1;entryDx=0;entryDy=0;dashed=1;startArrow=none;startFill=0;endArrow=classic;endFill=1;" edge="1" parent="1" source="j8oqrVwgT9RY4hqiSinP-12" target="j8oqrVwgT9RY4hqiSinP-6">
          <mxGeometry relative="1" as="geometry">
            <Array as="points">
              <mxPoint x="620" y="740" />
              <mxPoint x="205" y="740" />
            </Array>
          </mxGeometry>
        </mxCell>
        <mxCell id="j8oqrVwgT9RY4hqiSinP-12" value="&lt;font style=&quot;font-size: 25px&quot;&gt;GA&lt;/font&gt;" style="rounded=0;whiteSpace=wrap;html=1;" vertex="1" parent="1">
          <mxGeometry x="430" y="270" width="380" height="450" as="geometry" />
        </mxCell>
      </root>
    </mxGraphModel>
  </diagram>
</mxfile>
